<svg id="Capa_1" enable-background="new 0 0 512 512" height="512" viewBox="0 0 512 512" width="512" xmlns="http://www.w3.org/2000/svg"><g id="Chat"><path d="m351.039 160.961c-7.359-90.24-82.879-160.961-175.039-160.961-97.279 0-176 78.721-176 176 0 47.359 18.881 90.561 49.279 122.24l-49.279 53.76h160.961 15.039c97.279 0 176-78.721 176-176 0-5.119-.32-10.24-.961-15.039z" fill="#f9f"/><circle cx="240" cy="176" fill="#ce83ff" r="16"/><path d="m352 176c0 97.279-78.721 176-176 176h-15.039c-.641-5.119-.961-10.561-.961-16 0-97.279 78.721-176 176-176 5.119 0 10.24.32 15.039.961.641 4.799.961 9.92.961 15.039z" fill="#96f"/><g fill="#ce83ff"><path d="m462.721 458.24 49.279 53.76h-176c-91.84 0-167.039-70.08-175.039-160h15.039c97.279 0 176-78.721 176-176 0-5.119-.32-10.24-.961-15.039 90.24 7.359 160.961 82.879 160.961 175.039 0 47.359-18.881 90.561-49.279 122.24z"/><circle cx="176" cy="176" r="16"/><circle cx="112" cy="176" r="16"/></g></g></svg>