<svg id="Capa_1" enable-background="new 0 0 512 512" height="512" viewBox="0 0 512 512" width="512" xmlns="http://www.w3.org/2000/svg"><g id="Target"><path d="m467.52 112.32-23.36 23.36-41.6-3.52c-6.721-8.32-14.4-16-22.721-22.721l-3.52-41.6 23.361-23.359c-40.959-28.16-90.241-44.48-143.68-44.48-141.439 0-256 114.561-256 256s114.561 256 256 256 256-114.561 256-256c0-53.439-16.32-102.721-44.48-143.68zm-110.401 65.28-46.08 46.08c-5.439-9.28-13.439-17.28-22.719-22.719l46.08-46.08c8.639 6.398 16.321 14.08 22.719 22.719z" fill="#ff3ead"/><path d="m402.561 132.16c-6.721-8.32-14.4-16-22.721-22.721-33.279-28.478-76.481-45.439-123.84-45.439-105.92 0-192 86.08-192 192s86.08 192 192 192 192-86.08 192-192c0-47.359-16.961-90.561-45.439-123.84zm-45.442 45.44-46.08 46.08c-5.439-9.28-13.439-17.28-22.719-22.719l46.08-46.08c8.639 6.398 16.321 14.08 22.719 22.719z" fill="#ff8de4"/><path d="m384 256c0 70.721-57.279 128-128 128s-128-57.279-128-128 57.279-128 128-128c29.439 0 56.641 9.92 78.4 26.881l-46.08 46.08c9.28 5.439 17.28 13.439 22.719 22.719l46.08-46.08c16.961 21.759 26.881 48.961 26.881 78.4z" fill="#ff3ead"/><path d="m320 256c0 35.199-28.801 64-64 64s-64-28.801-64-64 28.801-64 64-64c11.84 0 22.721 3.199 32.32 8.961 9.28 5.439 17.28 13.439 22.719 22.719 5.762 9.599 8.961 20.48 8.961 32.32z" fill="#ff8de4"/><path d="m444 68v-68l-44.32 44.48-23.36 23.36 3.52 41.599-45.44 45.442-46.08 46.08-48.32 48.318 22.721 22.721 48.318-48.32 46.08-46.08 45.442-45.44 41.599 3.52 23.36-23.36 44.48-44.32z" fill="#ff3ead"/><g fill="#ff0068"><path d="m467.52 112.32-23.36 23.36-41.6-3.52c-6.721-8.32-14.4-16-22.721-22.721l-3.52-41.6 23.361-23.359c26.881 17.92 49.92 40.959 67.84 67.84z"/><path d="m357.119 177.6-46.08 46.08c-5.439-9.28-13.439-17.28-22.719-22.719l46.08-46.08c8.639 6.398 16.321 14.08 22.719 22.719z"/></g></g></svg>