<svg id="Capa_1" enable-background="new 0 0 512 512" height="512" viewBox="0 0 512 512" width="512" xmlns="http://www.w3.org/2000/svg"><g id="Money_bag"><path d="m181.439 64-21.439-64h192l-21.439 64z" fill="#4de600"/><path d="m480 368c0 132.48-160 144-224 144s-224-11.52-224-144c0-112 99.84-223.359 160-272h128c60.16 48.641 160 160 160 272z" fill="#4de600"/><path d="m330.561 64h-149.122-53.439v32h64 128 64v-32z" fill="#c8fa64"/><path d="m330.561 64-10.561 32h-128l-10.561-32z" fill="#14cc14"/><path d="m256 288c-8.836 0-16-7.164-16-16 0-8.838 7.164-16 16-16s16 7.162 16 16h32c0-20.832-13.416-38.426-32-45.053v-34.947h-32v34.947c-18.584 6.627-32 24.221-32 45.053 0 26.469 21.531 48 48 48 8.836 0 16 7.162 16 16 0 8.836-7.164 16-16 16s-16-7.164-16-16h-32c0 20.832 13.416 38.426 32 45.053v34.947h32v-34.947c18.584-6.627 32-24.221 32-45.053 0-26.469-21.531-48-48-48z" fill="#c8fa64"/></g></svg>