<svg id="Capa_1" enable-background="new 0 0 512 512" height="512" viewBox="0 0 512 512" width="512" xmlns="http://www.w3.org/2000/svg"><g id="Mouse"><path d="m240 304v96c0 61.76-50.24 112-112 112s-112-50.24-112-112v-96c0-56.32 41.92-103.039 96-110.721v126.721h32v-126.721c24.32 3.521 46.4 14.721 63.039 31.682 20.481 20.158 32.961 48.318 32.961 79.039z" fill="#ce83ff"/><path d="m448 96c-8.961 0-16-7.039-16-16s7.039-16 16-16 16 7.039 16 16h32c0-20.801-13.439-38.4-32-45.119v-34.881h-32v34.881c-18.561 6.719-32 24.318-32 45.119 0 26.561 21.439 48 48 48 8.961 0 16 7.039 16 16s-7.039 16-16 16-16-7.039-16-16h-32c0 20.801 13.439 38.4 32 45.119v66.881c0 35.199-28.801 64-64 64s-64-28.801-64-64v-96c0-53.119-42.881-96-96-96s-96 42.881-96 96v33.279 126.721h32v-126.721-33.279c0-35.199 28.801-64 64-64s64 28.801 64 64v96c0 53.119 42.881 96 96 96s96-42.881 96-96v-66.881c18.561-6.719 32-24.318 32-45.119 0-26.561-21.439-48-48-48z" fill="#f9f"/><path d="m144 193.279v126.721h-32v-126.721c5.119-.959 10.561-1.279 16-1.279s10.881.32 16 1.279z" fill="#96f"/></g></svg>