<svg id="Capa_1" enable-background="new 0 0 512 512" height="512" viewBox="0 0 512 512" width="512" xmlns="http://www.w3.org/2000/svg"><g id="Invoice"><path d="m144 0c-26.51 0-48 21.49-48 48v16 448h272c26.51 0 48-21.49 48-48v-464z" fill="#fffa50"/><path d="m256 224c-8.836 0-16-7.164-16-16 0-8.838 7.164-16 16-16s16 7.162 16 16h32c0-20.832-13.416-38.426-32-45.053v-34.947h-32v34.947c-18.584 6.627-32 24.221-32 45.053 0 26.469 21.531 48 48 48 8.836 0 16 7.162 16 16 0 8.836-7.164 16-16 16s-16-7.164-16-16h-32c0 20.832 13.416 38.426 32 45.053v34.947h32v-34.947c18.584-6.627 32-24.221 32-45.053 0-26.469-21.531-48-48-48z" fill="#ffa65c"/><path d="m48 512h320c-26.51 0-48-21.49-48-48v-16h-320v16c0 26.51 21.49 48 48 48z" fill="#ffa65c"/><path d="m96 448h-96v16c0 26.51 21.49 48 48 48 26.51 0 48-21.49 48-48z" fill="#ffce33"/><path d="m464 64v-64h-320c26.51 0 48 21.49 48 48v16z" fill="#ffa65c"/><path d="m512 64h-96v-16c0-26.51 21.49-48 48-48 26.51 0 48 21.49 48 48z" fill="#ffce33"/></g></svg>