<svg id="Capa_1" enable-background="new 0 0 512 512" height="512" viewBox="0 0 512 512" width="512" xmlns="http://www.w3.org/2000/svg"><g id="Shopping_bag"><path d="m368 128c-26.469 0-48 21.531-48 48v48h32v-48c0-8.838 7.164-16 16-16s16 7.162 16 16v48h32v-48c0-26.469-21.531-48-48-48z" fill="#ce83ff"/><path d="m288 224h224v288h-224z" fill="#ce83ff"/><path d="m0 96h288v416h-288z" fill="#f9f"/><path d="m224 224h64v288h-64z" fill="#96f"/><path d="m144 0c-44.109 0-80 35.891-80 80v16h32v-16c0-26.51 21.49-48 48-48s48 21.49 48 48v16h32v-16c0-44.109-35.891-80-80-80z" fill="#f9f"/></g></svg>