<svg id="Capa_1" enable-background="new 0 0 512 512" height="512" viewBox="0 0 512 512" width="512" xmlns="http://www.w3.org/2000/svg"><g id="Certificate"><path d="m0 32h512v320h-512z" fill="#fffa50"/><g fill="#ffce33"><path d="m64 64c0 17.672-14.326 32-32 32v64h32v-34.938c13.572-4.824 24.238-15.49 29.063-29.063h34.937v-31.999z"/><path d="m64 320c0-17.672-14.326-32-32-32v-64h32v34.938c13.572 4.824 24.238 15.49 29.063 29.063h34.937v32h-64z"/><path d="m448 64c0 17.672 14.326 32 32 32v64h-32v-34.938c-13.572-4.824-24.238-15.49-29.063-29.063h-34.937v-31.999z"/><path d="m448 320c0-17.672 14.326-32 32-32v-64h-32v34.938c-13.572 4.824-24.238 15.49-29.063 29.063h-34.937v32h64z"/><path d="m160 128h192v32h-192z"/><path d="m160 192h192v32h-192z"/></g><path d="m224 375.123v104.877l32-32 32 32v-104.877z" fill="#fffa50"/><path d="m192 352c0 35.346 28.654 64 64 64s64-28.654 64-64z" fill="#ffce33"/><path d="m256 288c-35.346 0-64 28.652-64 64h128c0-35.348-28.654-64-64-64z" fill="#ffa65c"/></g></svg>