<svg id="Capa_1" enable-background="new 0 0 512 512" height="512" viewBox="0 0 512 512" width="512" xmlns="http://www.w3.org/2000/svg"><g id="Calendar_2_"><path d="m416 512h-416v-352h512v256" fill="#ff8de4"/><path d="m0 64h512v96h-512z" fill="#ff3ead"/><g fill="#ff8de4"><path d="m64 0h32v128h-32z"/><path d="m240 0h32v128h-32z"/><path d="m416 0h32v128h-32z"/></g><path d="m64 64h32v64h-32z" fill="#ff0068"/><path d="m240 64h32v64h-32z" fill="#ff0068"/><path d="m416 64h32v64h-32z" fill="#ff0068"/><path d="m256 320c-8.836 0-16-7.164-16-16 0-8.838 7.164-16 16-16s16 7.162 16 16h32c0-21.115-13.725-38.848-32.67-45.27h.67v-34.73h-32v34.73h.67c-18.945 6.422-32.67 24.155-32.67 45.27 0 26.51 21.49 48 48 48 8.836 0 16 7.162 16 16 0 8.836-7.164 16-16 16s-16-7.164-16-16h-32c0 21.113 13.721 38.844 32.664 45.268h-.664v34.732h32v-34.732h-.664c18.943-6.424 32.664-24.155 32.664-45.268 0-26.51-21.49-48-48-48z" fill="#ff3ead"/><path d="m416 512 96-96h-96z" fill="#ff3ead"/></g></svg>