<svg id="Capa_1" enable-background="new 0 0 512 512" height="512" viewBox="0 0 512 512" width="512" xmlns="http://www.w3.org/2000/svg"><g id="Sandglass"><path d="m96 0h320v32h-320z" fill="#4db5ff"/><path d="m96 480h320v32h-320z" fill="#4db5ff"/><path d="m384 32h-256v128c0 38.4 16.961 72.641 43.52 96-26.559 23.359-43.52 57.6-43.52 96v128h256v-128c0-35.201-14.4-67.201-37.439-90.561-1.92-1.92-3.84-3.84-6.08-5.439 26.559-23.359 43.52-57.6 43.52-96v-128z" fill="#80eaff"/><g fill="#4d7cff"><path d="m256 416-96 64h192z"/><path d="m340.48 256c-22.721-19.84-52.16-32-84.48-32s-61.76 12.16-84.48 32c18.877 16.482 42.531 27.191 68.48 30.504v65.496h32v-65.496c25.949-3.313 49.604-14.022 68.48-30.504z"/></g></g></svg>