<svg id="Capa_1" enable-background="new 0 0 512 512" height="512" viewBox="0 0 512 512" width="512" xmlns="http://www.w3.org/2000/svg"><g id="Watch"><path d="m352 384h-224l-32-32v-192l32-32h224l32 32v192z" fill="#80eaff"/><path d="m320 0h-160l-32 128h224z" fill="#4db5ff"/><path d="m320 512h-160l-32-128h224z" fill="#4db5ff"/><path d="m128 128h224v32h-224z" fill="#4d7cff"/><path d="m128 352h224v32h-224z" fill="#4d7cff"/><path d="m256 256v-64h-32v96h32 32v-32z" fill="#4db5ff"/><path d="m384 288h32v32h-32z" fill="#4db5ff"/><path d="m352 288h32v32h-32z" fill="#4d7cff"/><path d="m384 192h32v32h-32z" fill="#4db5ff"/><path d="m352 192h32v32h-32z" fill="#4d7cff"/></g></svg>