<svg id="Capa_1" enable-background="new 0 0 512 512" height="512" viewBox="0 0 512 512" width="512" xmlns="http://www.w3.org/2000/svg"><g id="Tribune"><path d="m416 96v96h-35.52l3.52-32h-256l3.52 32h-35.52v-96z" fill="#ff3ead"/><path d="m128 160 3.52 32 28.48 256h192l28.48-256 3.52-32z" fill="#ff8de4"/><path d="m384 160-3.52 32h-28.48l-32 32h-128l-32-32h-28.48l-3.52-32z" fill="#ff0068"/><path d="m192 0c-35.346 0-64 28.654-64 64v32h32v-32c0-17.673 14.327-32 32-32z" fill="#ff8de4"/><path d="m320 0c35.346 0 64 28.654 64 64v32h-32v-32c0-17.673-14.327-32-32-32z" fill="#ff8de4"/><path d="m160 448-32 32v32h256v-32l-32-32z" fill="#ff3ead"/></g></svg>