<svg id="Capa_1" enable-background="new 0 0 512 512" height="512" viewBox="0 0 512 512" width="512" xmlns="http://www.w3.org/2000/svg"><g id="Support"><path d="m182.096 375.158 193.062-193.062c35.656 16.954 79.467 11.043 108.98-18.47s35.424-73.324 18.47-108.98l-41.353 41.354h-45.255v-45.255l41.354-41.354c-35.656-16.954-79.467-11.043-108.98 18.47s-35.424 73.324-18.47 108.98l-193.062 193.063c-35.656-16.954-79.467-11.043-108.98 18.47s-35.424 73.324-18.47 108.98l41.353-41.354h45.255v45.255l-41.354 41.354c35.656 16.954 79.467 11.043 108.98-18.47 29.513-29.514 35.424-73.324 18.47-108.981z" fill="#f9f"/><path d="m375.158 329.904-193.062-193.062c16.954-35.656 11.043-79.467-18.47-108.98s-73.324-35.425-108.98-18.471l41.354 41.354v45.255h-45.255l-41.354-41.354c-16.954 35.656-11.043 79.467 18.47 108.98s73.324 35.424 108.98 18.47l193.062 193.062c-16.954 35.656-11.043 79.467 18.47 108.98s73.324 35.424 108.98 18.47l-41.353-41.353v-45.255h45.255l41.354 41.354c16.954-35.656 11.043-79.467-18.47-108.98-29.514-29.513-73.324-35.424-108.981-18.47z" fill="#ce83ff"/><path d="m224 224h64v64h-64z" fill="#96f" transform="matrix(.707 -.707 .707 .707 -106.039 256)"/></g></svg>