<svg id="Capa_1" enable-background="new 0 0 512 512" height="512" viewBox="0 0 512 512" width="512" xmlns="http://www.w3.org/2000/svg"><g id="Stopwatch"><path d="m425.279 141.439c-7.039-8.32-14.398-15.68-22.719-22.721-35.521-31.038-80.64-50.558-130.56-53.759-5.119-.639-10.561-.959-16-.959s-10.881.32-16 .959c-49.92 3.201-95.039 22.721-130.561 53.76-8.32 7.041-15.68 14.4-22.719 22.721-34.24 39.359-54.72 90.24-54.72 146.56 0 123.84 100.16 224 224 224s224-100.16 224-224c0-56.32-20.48-107.201-54.721-146.561z" fill="#ffce33"/><path d="m272 64.959v32c-5.439-.639-10.561-.959-16-.959s-10.561.32-16 .959v-32c5.119-.639 10.561-.959 16-.959s10.881.32 16 .959z" fill="#ffa65c"/><path d="m425.279 141.439-22.719 22.721c-7.041-8.32-14.4-15.68-22.721-22.721l22.721-22.721c8.321 7.042 15.68 14.401 22.719 22.721z" fill="#ffa65c"/><path d="m132.16 141.439c-8.32 7.041-15.68 14.4-22.721 22.721l-22.719-22.721c7.039-8.32 14.398-15.68 22.719-22.721z" fill="#ffa65c"/><g fill="#fffa50"><circle cx="256" cy="288" r="160"/><path d="m320 0v32h-48v32.959c-5.119-.639-10.561-.959-16-.959s-10.881.32-16 .959v-32.959h-48v-32z"/><path d="m448 118.719-22.721 22.721c-7.039-8.32-14.398-15.68-22.719-22.721l22.719-22.719z"/><path d="m109.439 118.719c-8.32 7.041-15.68 14.4-22.719 22.721l-22.72-22.721 22.721-22.719z"/></g><path d="m272 288v-96h-32v128h80v-32z" fill="#ffa65c"/></g></svg>