<svg id="Capa_1" enable-background="new 0 0 512 512" height="512" viewBox="0 0 512 512" width="512" xmlns="http://www.w3.org/2000/svg"><g id="Piggy_Bank"><path d="m512 192v32c0 35.199-28.801 64-64 64v96c0 35.199-28.801 64-64 64v32h-64v-32h-160v32h-64v-32c-35.199 0-64-28.801-64-64h-32v-128h32c0-23.68 12.801-44.16 32-55.041v-8.959c0-17.6 14.4-32 32-32s32 14.4 32 32h56.641c17.279 19.84 42.879 32 71.359 32s54.08-12.16 71.359-32h56.641c35.199 0 64 28.799 64 64 17.6 0 32-14.4 32-32v-32z" fill="#ffce33"/><g fill="#fffa50"><circle cx="80" cy="272" r="16"/><path d="m160 256h192v32h-192z"/><path d="m256 32c-53.119 0-96 42.879-96 96 0 24.639 9.279 47.039 24.641 64 17.279 19.84 42.879 32 71.359 32s54.08-12.16 71.359-32c15.362-16.961 24.641-39.361 24.641-64 0-53.121-42.881-96-96-96z"/></g><path d="m327.359 192c-17.279 19.84-42.879 32-71.359 32s-54.08-12.16-71.359-32z" fill="#ffa65c"/></g></svg>