<svg id="Capa_1" enable-background="new 0 0 512 512" height="512" viewBox="0 0 512 512" width="512" xmlns="http://www.w3.org/2000/svg"><g id="Presentation"><path d="m32 96h448v288h-448z" fill="#c0fa4b"/><g fill="#5de617"><path d="m272 480v-96h-32v96h-32v32h96v-32z"/><path d="m160 160c-53.02 0-96 42.98-96 96s42.98 96 96 96 96-42.98 96-96h-96z"/><path d="m192 128v96h96c0-53.02-42.98-96-96-96z"/><path d="m352 160h96v32h-96z"/><path d="m352 224h96v32h-96z"/><path d="m352 288h96v32h-96z"/><path d="m320 32v-32h-128v32h-192v64h512v-64z"/></g><path d="m32 64h448v32h-448z" fill="#14cc14"/></g></svg>