<svg id="Capa_1" enable-background="new 0 0 512 512" height="512" viewBox="0 0 512 512" width="512" xmlns="http://www.w3.org/2000/svg"><g id="Laptop"><path d="m32 64h448v320h-448z" fill="#c0fa4b"/><g fill="#5de617"><path d="m256 128c-53.02 0-96 42.98-96 96s42.98 96 96 96 96-42.98 96-96h-96z"/><path d="m288 96v96h96c0-53.02-42.98-96-96-96z"/><path d="m352 352-32 32h-128l-32-32h-160v32c0 35.346 28.654 64 64 64h384c35.346 0 64-28.654 64-64v-32z"/></g><path d="m352 352-32 32h-128l-32-32h-128v32h448v-32z" fill="#14cc14"/></g></svg>