<svg id="Capa_1" enable-background="new 0 0 512 512" height="512" viewBox="0 0 512 512" width="512" xmlns="http://www.w3.org/2000/svg"><g id="Career_Path"><path d="m414.242 129.436c.9-5.719 1.758-11.463 1.758-17.436 0-61.855-50.145-112-112-112-46.361 0-86.139 28.174-103.16 68.332-7.863-2.584-16.111-4.332-24.84-4.332-39.205 0-71.684 28.242-78.535 65.465-37.223 6.851-65.465 39.33-65.465 78.535 0 44.182 35.816 80 80 80h288c44.184 0 80-35.818 80-80 0-39.305-28.395-71.826-65.758-78.564z" fill="#f9f"/><g fill="#96f"><path d="m160 224h32v64h-32z"/><path d="m320 224h32v64h-32z"/><path d="m192 256h128v32h-128z"/></g><path d="m320 288v32h-128v-32h-32v224h32v-32h128v32h32v-224zm0 160h-128v-32h128zm0-64h-128v-32h128z" fill="#ce83ff"/></g></svg>