<svg id="Capa_1" enable-background="new 0 0 512 512" height="512" viewBox="0 0 512 512" width="512" xmlns="http://www.w3.org/2000/svg"><g><path d="m360.641 22.4-12.481 29.44c-28.16-12.801-59.199-19.84-92.16-19.84s-64 7.039-92.16 19.84l-12.481-29.44c32-14.08 67.202-22.4 104.641-22.4s72.641 8.32 104.641 22.4z" fill="#ff3ead"/><path d="m360.641 489.6c-32 14.08-67.201 22.4-104.641 22.4s-72.641-8.32-104.641-22.4l12.48-29.439c28.161 12.798 59.2 19.839 92.161 19.839s64-7.041 92.16-19.84z" fill="#ff3ead"/><path d="m32 256c0 32.959 7.039 64 19.84 92.16l-29.44 12.479c-14.08-32-22.4-67.2-22.4-104.639 0-37.441 8.32-72.641 22.4-104.641l29.439 12.48c-12.8 28.161-19.839 59.2-19.839 92.161z" fill="#ff3ead"/><path d="m460.16 163.84h-.32c-22.08-49.6-62.08-89.6-111.68-111.68v-.32c-28.16-12.801-59.199-19.84-92.16-19.84s-64 7.039-92.16 19.84v.32c-49.6 22.08-89.6 62.08-111.68 111.68h-.32c-12.801 28.16-19.84 59.199-19.84 92.16 0 32.959 7.039 64 19.84 92.16h.32c22.08 49.6 62.08 89.6 111.68 111.68v.32c28.16 12.799 59.199 19.84 92.16 19.84s64-7.041 92.16-19.84v-.32c49.6-22.08 89.6-62.08 111.68-111.68h.32c12.801-28.16 19.84-59.201 19.84-92.16 0-32.961-7.039-64-19.84-92.16zm-88.64 146.24c-12.16 27.199-34.24 49.279-61.439 61.439v.32c-16.321 7.681-34.882 12.161-54.081 12.161s-37.76-4.48-54.08-12.16v-.32c-27.199-12.16-49.279-34.24-61.439-61.439h-.32c-7.681-16.321-12.161-34.882-12.161-54.081 0-19.201 4.48-37.76 12.16-54.08h.32c12.16-27.201 34.24-49.281 61.439-61.439v-.32c16.321-7.681 34.882-12.161 54.081-12.161s37.76 4.48 54.08 12.16v.32c27.199 12.158 49.279 34.238 61.439 61.439h.32c7.681 16.321 12.161 34.88 12.161 54.081 0 19.199-4.48 37.76-12.16 54.08z" fill="#ff8de4"/><g fill="#ff0068"><path d="m348.16 51.84v.32l-38.08 88c-16.32-7.68-34.881-12.16-54.08-12.16s-37.76 4.48-54.08 12.16l-38.08-88v-.32c28.16-12.801 59.199-19.84 92.16-19.84s64 7.039 92.16 19.84z"/><path d="m348.16 459.84v.32c-28.16 12.799-59.199 19.84-92.16 19.84s-64-7.041-92.16-19.84v-.32l38.08-88c16.32 7.68 34.881 12.16 54.08 12.16s37.76-4.48 54.08-12.16z"/><path d="m128 256c0 19.199 4.48 37.76 12.16 54.08l-88 38.08h-.32c-12.801-28.16-19.84-59.201-19.84-92.16 0-32.961 7.039-64 19.84-92.16h.32l88 38.08c-7.68 16.32-12.16 34.879-12.16 54.08z"/><path d="m480 256c0 32.959-7.039 64-19.84 92.16h-.32l-88-38.08c7.68-16.32 12.16-34.881 12.16-54.08 0-19.201-4.48-37.76-12.16-54.08l88-38.08h.32c12.801 28.16 19.84 59.199 19.84 92.16z"/></g><path d="m512 256c0 37.439-8.32 72.639-22.4 104.639l-29.44-12.479c12.801-28.16 19.84-59.201 19.84-92.16 0-32.961-7.039-64-19.84-92.16l29.439-12.48c14.081 31.999 22.401 67.199 22.401 104.64z" fill="#ff3ead"/></g></svg>