<svg id="Capa_1" enable-background="new 0 0 512 512" height="512" viewBox="0 0 512 512" width="512" xmlns="http://www.w3.org/2000/svg"><g id="Strategy"><path d="m272 98.24c-5.119-1.602-10.561-2.24-16-2.24s-10.881.639-16 2.24c-27.52 7.039-48 32-48 61.76 0 35.199 28.801 64 64 64s64-28.801 64-64c0-29.76-20.48-54.721-48-61.76z" fill="#80eaff"/><path d="m272 98.24v31.76h-32v-31.76c5.119-1.602 10.561-2.24 16-2.24s10.881.639 16 2.24z" fill="#4d7cff"/><path d="m160 192h192v64h-192z" fill="#4db5ff"/><path d="m320 352v-128h-128v128c0 35.346-28.654 64-64 64v64h256v-64c-35.346 0-64-28.654-64-64z" fill="#80eaff"/><path d="m192 224h128v32h-128z" fill="#4d7cff"/><path d="m96 448h320v64h-320z" fill="#4db5ff"/><path d="m304 32v32h-32v34.24c-5.119-1.602-10.561-2.24-16-2.24s-10.881.639-16 2.24v-34.24h-32v-32h32v-32h32v32z" fill="#4db5ff"/><path d="m128 448h256v32h-256z" fill="#4d7cff"/></g></svg>