<svg id="Capa_1" enable-background="new 0 0 512 512" height="512" viewBox="0 0 512 512" width="512" xmlns="http://www.w3.org/2000/svg"><g id="Phone_1_"><path d="m64 0h256v512h-256z" fill="#f9f"/><path d="m320 112v256c70.693 0 128-57.309 128-128 0-70.693-57.307-128-128-128z" fill="#ce83ff"/><path d="m192 240c0 35.346 14.326 67.348 37.49 90.51l-37.49 37.49h128v-128-128c-70.693 0-128 57.307-128 128z" fill="#96f"/><path d="m160 64h64v32h-64z" fill="#ce83ff"/><path d="m160 416h64v32h-64z" fill="#ce83ff"/><g fill="#f9f"><circle cx="368" cy="240" r="16"/><circle cx="272" cy="240" r="16"/><circle cx="320" cy="240" r="16"/></g></g></svg>