<svg id="Capa_1" enable-background="new 0 0 512 512" height="512" viewBox="0 0 512 512" width="512" xmlns="http://www.w3.org/2000/svg"><g id="Medal"><path d="m160 128v32h80v65.613h32v-65.613h80v-32z" fill="#ffce33"/><circle cx="256" cy="352" fill="#fffa50" r="160"/><path d="m256 400c-8.836 0-16-7.164-16-16h-32c0 20.832 13.416 38.426 32 45.053v34.947h32v-34.947c18.584-6.627 32-24.221 32-45.053 0-26.469-21.531-48-48-48-8.836 0-16-7.164-16-16 0-8.838 7.164-16 16-16s16 7.162 16 16h32c0-20.832-13.416-38.426-32-45.053v-34.947h-32v34.947c-18.584 6.627-32 24.221-32 45.053 0 26.469 21.531 48 48 48 8.836 0 16 7.162 16 16 0 8.836-7.164 16-16 16z" fill="#ffce33"/><path d="m256 64-64 64-128-128h128z" fill="#ffce33"/><path d="m320 128h-128l64-64z" fill="#ffa65c"/><path d="m448 0-128 128-64-64 64-64z" fill="#ffce33"/></g></svg>