<svg id="Capa_1" enable-background="new 0 0 512 512" height="512" viewBox="0 0 512 512" width="512" xmlns="http://www.w3.org/2000/svg"><g id="Exchange"><path d="m320 160c0 12.48-1.279 24.639-4.16 36.16-59.199 13.76-105.92 60.479-119.68 119.68-11.52 2.879-23.68 4.16-36.16 4.16-88.32 0-160-71.68-160-160s71.68-160 160-160 160 71.68 160 160z" fill="#fffa50"/><path d="m160 144c-8.836 0-16-7.164-16-16 0-8.838 7.164-16 16-16s16 7.162 16 16h32c0-20.832-13.416-38.426-32-45.053v-34.947h-32v34.947c-18.584 6.627-32 24.221-32 45.053 0 26.469 21.531 48 48 48 8.836 0 16 7.162 16 16 0 8.836-7.164 16-16 16s-16-7.164-16-16h-32c0 20.832 13.416 38.426 32 45.053v34.947h32v-34.947c18.584-6.627 32-24.221 32-45.053 0-26.469-21.531-48-48-48z" fill="#ffce33"/><path d="m315.84 196.16c-13.76 59.199-60.48 105.92-119.68 119.68 13.76-59.201 60.481-105.92 119.68-119.68z" fill="#ffa65c"/><path d="m512 352c0 88.32-71.68 160-160 160s-160-71.68-160-160c0-12.48 1.279-24.641 4.16-36.16 59.199-13.76 105.92-60.48 119.68-119.68 11.52-2.881 23.68-4.16 36.16-4.16 88.32 0 160 71.68 160 160z" fill="#ffce33"/><path d="m352 96v32h32v32h32v-32-32z" fill="#ffa65c"/><path d="m160 416v-32h-32v-32h-32v32 32z" fill="#ffa65c"/><path d="m416 320c0-26.469-21.531-48-48-48h-16v-32h-32v32h-32v160h32v32h32v-32h16c26.469 0 48-21.531 48-48 0-12.338-4.809-23.488-12.484-32 7.675-8.512 12.484-19.662 12.484-32zm-48 80h-48v-32h48c8.836 0 16 7.162 16 16 0 8.836-7.164 16-16 16zm0-64h-48v-32h48c8.836 0 16 7.162 16 16 0 8.836-7.164 16-16 16z" fill="#fffa50"/></g></svg>