<svg id="Capa_1" enable-background="new 0 0 512 512" height="512" viewBox="0 0 512 512" width="512" xmlns="http://www.w3.org/2000/svg"><g id="Protection"><g fill="#ffce33"><path d="m96 416h-96l32-32-32-32h96z"/><path d="m416 416h96l-32-32 32-32h-96z"/><path d="m416 320v64s-35.52 0-67.199 0c17.6-18.881 32-40.641 42.879-64z"/></g><path d="m256 64s-71.68 32-160 32v115.52c0 38.4 8.641 75.199 24.32 108.48 10.879 23.359 25.279 45.119 42.879 64 25.281 27.52 56.641 49.6 92.801 64 36.16-14.4 67.52-36.48 92.801-64 17.6-18.881 32-40.641 42.879-64 15.68-33.281 24.32-70.08 24.32-108.48v-115.52c-88.32 0-160-32-160-32z" fill="#fffa50"/><path d="m391.68 320c-10.879 23.359-25.279 45.119-42.879 64h-47.041c22.08-17.92 40-39.68 53.76-64z" fill="#ffa65c"/><path d="m210.24 384s-22.4 0-47.041 0c-17.6-18.881-32-40.641-42.879-64h36.16c13.76 24.32 31.68 46.08 53.76 64z" fill="#ffa65c"/><path d="m163.199 384h-67.199v-64h24.32c10.879 23.359 25.28 45.119 42.879 64z" fill="#ffce33"/><path d="m256 224c-8.836 0-16-7.164-16-16 0-8.838 7.164-16 16-16s16 7.162 16 16h32c0-20.832-13.416-38.426-32-45.053v-34.947h-32v34.947c-18.584 6.627-32 24.221-32 45.053 0 26.469 21.531 48 48 48 8.836 0 16 7.162 16 16 0 8.836-7.164 16-16 16s-16-7.164-16-16h-32c0 20.832 13.416 38.426 32 45.053v34.947h32v-34.947c18.584-6.627 32-24.221 32-45.053 0-26.469-21.531-48-48-48z" fill="#ffce33"/></g></svg>