<svg id="Capa_1" enable-background="new 0 0 512 512" height="512" viewBox="0 0 512 512" width="512" xmlns="http://www.w3.org/2000/svg"><g id="Bank"><path d="m0 448h512v64h-512z" fill="#5de617"/><path d="m32 416h128v32h-128z" fill="#c0fa4b"/><path d="m32 448h128v32h-128z" fill="#14cc14"/><path d="m192 416h128v32h-128z" fill="#c0fa4b"/><path d="m192 448h128v32h-128z" fill="#14cc14"/><g fill="#c0fa4b"><path d="m352 416h128v32h-128z"/><path d="m32 192h128v32h-128z"/><path d="m192 192h128v32h-128z"/><path d="m352 192h128v32h-128z"/></g><path d="m352 448h128v32h-128z" fill="#14cc14"/><path d="m64 224h64v192h-64z" fill="#c0fa4b"/><path d="m224 224h64v192h-64z" fill="#c0fa4b"/><path d="m384 224h64v192h-64z" fill="#c0fa4b"/><path d="m512 192h-512v-64l256-128 256 128z" fill="#5de617"/><path d="m32 160h128v32h-128z" fill="#14cc14"/><path d="m192 160h128v32h-128z" fill="#14cc14"/><path d="m352 160h128v32h-128z" fill="#14cc14"/><circle cx="256" cy="96" fill="#c0fa4b" r="32"/></g></svg>