<svg id="Capa_1" enable-background="new 0 0 512 512" height="512" viewBox="0 0 512 512" width="512" xmlns="http://www.w3.org/2000/svg"><g id="Payment_Terminal"><path d="m96 128h320v384h-320z" fill="#5de617" transform="matrix(-1 0 0 -1 512 640)"/><path d="m128 128h256v64h-256z" fill="#14cc14"/><g fill="#c0fa4b"><path d="m128 224h160v64h-160z" transform="matrix(-1 0 0 -1 416 512)"/><path d="m192 320h32v32h-32z" transform="matrix(-1 0 0 -1 416 672)"/><path d="m352 224h32v256h-32z" transform="matrix(-1 0 0 -1 736 704)"/><path d="m128 320h32v32h-32z" transform="matrix(-1 0 0 -1 288 672)"/><path d="m192 384h32v32h-32z" transform="matrix(-1 0 0 -1 416 800)"/><path d="m128 384h32v32h-32z" transform="matrix(-1 0 0 -1 288 800)"/><path d="m192 448h32v32h-32z" transform="matrix(-1 0 0 -1 416 928)"/><path d="m256 320h32v32h-32z" transform="matrix(-1 0 0 -1 544 672)"/><path d="m256 384h32v32h-32z" transform="matrix(-1 0 0 -1 544 800)"/><path d="m256 448h32v32h-32z" transform="matrix(-1 0 0 -1 544 928)"/><path d="m128 448h32v32h-32z" transform="matrix(-1 0 0 -1 288 928)"/><path d="m352 0-32 32-32-32-32 32-32-32-32 32-32-32-32 32v96h192 64v-96z"/></g></g></svg>