<svg id="Capa_1" enable-background="new 0 0 512 512" height="512" viewBox="0 0 512 512" width="512" xmlns="http://www.w3.org/2000/svg"><g id="Key"><path d="m216 192c0-47.68-34.561-87.041-80-94.4-5.119-1.279-10.561-1.6-16-1.6s-10.881.32-16 1.6c-45.439 7.359-80 46.721-80 94.4 0 41.6 26.881 76.799 64 90.24v229.76h64v-32h32v-96h-32v-101.76c37.119-13.441 64-48.64 64-90.24z" fill="#fffa50"/><path d="m136 97.6v94.4h-32v-94.4c5.119-1.279 10.561-1.6 16-1.6s10.881.32 16 1.6z" fill="#ffa65c"/><g fill="#ffce33"><path d="m488 144c0 20.799-13.439 38.4-32 45.119v66.881c0 53.119-42.881 96-96 96s-96-42.881-96-96v-160c0-35.201-28.801-64-64-64s-64 28.799-64 64v1.6c-5.119-1.279-10.561-1.6-16-1.6s-10.881.32-16 1.6v-1.6c0-53.121 42.881-96 96-96s96 42.879 96 96v160c0 35.199 28.801 64 64 64s64-28.801 64-64v-66.881c-18.561-6.719-32-24.32-32-45.119h32c0 8.959 7.039 16 16 16s16-7.041 16-16c0-8.961-7.039-16-16-16-26.561 0-48-21.441-48-48 0-20.801 13.439-38.4 32-45.121v-34.879h32v34.879c18.561 6.721 32 24.32 32 45.121h-32c0-8.961-7.039-16-16-16s-16 7.039-16 16c0 8.959 7.039 16 16 16 26.561 0 48 21.439 48 48z"/><path d="m152 416h32v32h-32z"/></g></g></svg>