<svg id="Capa_1" enable-background="new 0 0 512 512" height="512" viewBox="0 0 512 512" width="512" xmlns="http://www.w3.org/2000/svg"><g id="Vision"><path d="m272 96.639c-5.119-.319-10.561-.639-16-.639s-10.881.32-16 .639c-134.08 11.201-240 159.361-240 159.361s105.92 148.16 240 159.359c5.119.32 10.561.641 16 .641s10.881-.32 16-.641c134.08-11.199 240-159.359 240-159.359s-105.92-148.16-240-159.361zm-16 143.361c26.561 0 48 21.439 48 48 0 20.799-13.439 38.4-32 45.119v49.92c-5.119.641-10.561.961-16 .961s-10.881-.32-16-.961v-49.92c-18.561-6.719-32-24.32-32-45.119h32c0 8.959 7.039 16 16 16s16-7.041 16-16c0-8.961-7.039-16-16-16-26.561 0-48-21.441-48-48 0-20.801 13.439-38.4 32-45.121 0 0 0-23.943 0-49.92 5.119-.639 10.561-.959 16-.959s10.881.32 16 .959v49.92c18.561 6.721 32 24.32 32 45.121h-32c0-8.961-7.039-16-16-16s-16 7.039-16 16c0 8.959 7.039 16 16 16z" fill="#f9f"/><g fill="#ce83ff"><path d="m272 96.639v32.32c-5.119-.639-10.561-.959-16-.959s-10.881.32-16 .959v-32.32c5.119-.319 10.561-.639 16-.639s10.881.32 16 .639z"/><path d="m256 384c5.439 0 10.881-.32 16-.961v32.32c-5.119.32-10.561.641-16 .641s-10.881-.32-16-.641v-32.32c5.119.641 10.561.961 16 .961z"/><path d="m272 128.959c-5.119-.639-10.561-.959-16-.959s-10.881.32-16 .959c-63.039 8-112 61.76-112 127.041 0 65.279 48.961 119.039 112 127.039 5.119.641 10.561.961 16 .961s10.881-.32 16-.961c63.039-8 112-61.76 112-127.039 0-65.281-48.961-119.041-112-127.041z"/></g><path d="m304 288c0 20.799-13.439 38.4-32 45.119v49.92c-5.119.641-10.561.961-16 .961s-10.881-.32-16-.961v-49.92c-18.561-6.719-32-24.32-32-45.119h32c0 8.959 7.039 16 16 16s16-7.041 16-16c0-8.961-7.039-16-16-16-26.561 0-48-21.441-48-48 0-20.801 13.439-38.4 32-45.121 0 0 0-24 0-49.92 5.119-.639 10.561-.959 16-.959s10.881.32 16 .959v49.92c18.561 6.721 32 24.32 32 45.121h-32c0-8.961-7.039-16-16-16s-16 7.039-16 16c0 8.959 7.039 16 16 16 26.561 0 48 21.439 48 48z" fill="#96f"/></g></svg>