<svg id="Capa_1" enable-background="new 0 0 512 512" height="512" viewBox="0 0 512 512" width="512" xmlns="http://www.w3.org/2000/svg"><g id="Usb_1_"><path d="m80 0h128v96h-128z" fill="#ce83ff"/><path d="m80 32h32v32h-32z" fill="#f9f"/><path d="m176 32h32v32h-32z" fill="#f9f"/><path d="m240 416v-96h-96c-53.02 0-96 42.98-96 96s42.98 96 96 96 96-42.98 96-96z" fill="#96f"/><path d="m48 96v320c0 53.119 42.881 96 96 96s96-42.881 96-96v-96-224z" fill="#f9f"/><path d="m240 320v96c0 53.119-42.881 96-96 96s-96-42.881-96-96c0-53.121 42.881-96 96-96z" fill="#96f"/><path d="m464 320v192h-320c53.119 0 96-42.881 96-96v-96z" fill="#ce83ff"/><circle cx="144" cy="416" fill="#f9f" r="32"/></g></svg>