<svg id="Capa_1" enable-background="new 0 0 512 512" height="512" viewBox="0 0 512 512" width="512" xmlns="http://www.w3.org/2000/svg"><g id="Startup"><path d="m156.979 96c-18.383 33.51-28.979 71.416-28.979 111.107v240.893h256v-240.893c0-39.691-10.596-77.598-28.979-111.107z" fill="#ff8de4"/><g fill="#ff3ead"><path d="m128 288c-53.019 0-96 42.981-96 96v128h32c0-35.346 28.654-64 64-64z"/><path d="m384 288c53.019 0 96 42.981 96 96v128h-32c0-35.346-28.654-64-64-64z"/><path d="m256 256c-8.836 0-16-7.164-16-16 0-8.838 7.164-16 16-16s16 7.162 16 16h32c0-20.832-13.416-38.426-32-45.053v-34.947h-32v34.947c-18.584 6.627-32 24.221-32 45.053 0 26.469 21.531 48 48 48 8.836 0 16 7.162 16 16 0 8.836-7.164 16-16 16s-16-7.164-16-16h-32c0 20.832 13.416 38.426 32 45.053v34.947h32v-34.947c18.584-6.627 32-24.221 32-45.053 0-26.469-21.531-48-48-48z"/></g><path d="m128 288h32v160h-32z" fill="#ff0068"/><path d="m352 288h32v160h-32z" fill="#ff0068"/><path d="m156.979 96h198.043c-22.239-40.535-56.077-74.527-99.022-96-42.945 21.473-76.783 55.465-99.021 96z" fill="#ff3ead"/></g></svg>