<svg id="Capa_1" enable-background="new 0 0 512 512" height="512" viewBox="0 0 512 512" width="512" xmlns="http://www.w3.org/2000/svg"><g id="_Puzzle"><path d="m256 128h-72.877c5.498-9.445 8.877-20.283 8.877-32 0-35.348-28.654-64-64-64s-64 28.652-64 64c0 11.717 3.379 22.555 8.877 32h-72.877v72.877c9.445-5.498 20.283-8.877 32-8.877 35.346 0 64 28.652 64 64 0 35.346-28.654 64-64 64-11.717 0-22.555-3.379-32-8.877v72.877h72.877c-5.498 9.447-8.877 20.283-8.877 32 0 35.346 28.654 64 64 64s64-28.654 64-64c0-11.717-3.379-22.553-8.877-32h72.877z" fill="#f9f"/><path d="m512 128h-72.877c5.498-9.445 8.877-20.283 8.877-32 0-35.348-28.654-64-64-64s-64 28.652-64 64c0 11.717 3.379 22.555 8.877 32h-72.877v256h72.877c-5.498 9.447-8.877 20.283-8.877 32 0 35.346 28.654 64 64 64s64-28.654 64-64c0-11.717-3.379-22.553-8.877-32h72.877z" fill="#ce83ff"/><path d="m288 192c-11.717 0-22.555 3.379-32 8.877v110.246c9.445 5.498 20.283 8.877 32 8.877 35.346 0 64-28.654 64-64 0-35.348-28.654-64-64-64z" fill="#96f"/></g></svg>