<svg id="Capa_1" enable-background="new 0 0 512 512" height="512" viewBox="0 0 512 512" width="512" xmlns="http://www.w3.org/2000/svg"><g id="Fax_1_"><path d="m64 512c-35.346 0-64-28.654-64-64v-352c0-35.346 28.654-64 64-64 35.346 0 64 28.654 64 64v352c0 35.346-28.654 64-64 64z" fill="#c0fa4b"/><path d="m128 96h384v352h-384z" fill="#5de617"/><g fill="#c0fa4b"><path d="m192 0h256v96h-256z"/><path d="m224 224h192v32h-192z"/><path d="m192 288h256v32h-256z"/><path d="m224 352h192v32h-192z"/></g><path d="m192 96h256v96h-256z" fill="#14cc14"/></g></svg>