<svg id="Capa_1" enable-background="new 0 0 512 512" height="512" viewBox="0 0 512 512" width="512" xmlns="http://www.w3.org/2000/svg"><g id="Target_2_"><path d="m64.641 272h-31.68c7.359 111.039 96 199.68 207.039 207.039v-31.68c-93.119-7.679-167.68-82.24-175.359-175.359zm207.359-239.041v31.68c93.119 7.681 167.68 82.24 175.359 175.361h31.68c-7.359-111.041-96-199.68-207.039-207.041zm-239.039 207.041h31.68c7.679-93.121 82.24-167.68 175.359-175.361v-31.68c-111.039 7.361-199.68 96-207.039 207.041zm414.398 32c-7.68 93.119-82.24 167.68-175.359 175.359v31.68c111.039-7.359 199.68-96 207.039-207.039z" fill="#ff8de4"/><circle cx="256" cy="192" fill="#ff8de4" r="64"/><g fill="#ff3ead"><path d="m352 352h-192c0-53.019 42.981-96 96-96 53.019 0 96 42.981 96 96z"/><path d="m240 0v32.959 31.68 31.361h32v-31.361-31.68-32.959z"/><path d="m240 416v31.359 31.68 32.961h32v-32.961-31.68-31.359z"/><path d="m64.641 240h-31.68-32.961v32h32.961 31.68 31.359v-32z"/><path d="m479.039 240h-31.68-31.359v32h31.359 31.68 32.961v-32z"/></g><path d="m272 32.959v31.68c-5.119-.319-10.561-.639-16-.639s-10.881.32-16 .639v-31.68c5.119-.639 10.561-.959 16-.959s10.881.32 16 .959z" fill="#ff0068"/><path d="m272 447.359v31.68c-5.119.641-10.561.961-16 .961s-10.881-.32-16-.961v-31.68c5.119.32 10.561.641 16 .641s10.881-.32 16-.641z" fill="#ff0068"/><path d="m64 256c0 5.439.32 10.879.641 16h-31.68c-.641-5.121-.961-10.561-.961-16 0-5.441.32-10.881.961-16h31.68c-.321 5.119-.641 10.559-.641 16z" fill="#ff0068"/><path d="m480 256c0 5.439-.32 10.879-.961 16h-31.68c.32-5.121.641-10.561.641-16 0-5.441-.32-10.881-.641-16h31.68c.641 5.119.961 10.559.961 16z" fill="#ff0068"/></g></svg>