<svg id="Capa_1" enable-background="new 0 0 512 512" height="512" viewBox="0 0 512 512" width="512" xmlns="http://www.w3.org/2000/svg"><g id="Workplace"><path d="m0 192v256h32v-32h192v-192h256v224h32v-256z" fill="#ffce33"/><path d="m32 224h160v64h-160z" fill="#fffa50"/><path d="m32 320h160v64h-160z" fill="#fffa50"/><path d="m448 288h-192v-128c0-53.019 42.981-96 96-96 53.019 0 96 42.981 96 96z" fill="#fffa50"/><path d="m256 192h192v32h-192z" fill="#ffa65c"/><g fill="#ffce33"><path d="m336 288h32v96h-32z"/><path d="m256 320h192v32h-192z"/><path d="m320 384c-35.346 0-64 28.654-64 64h32c0-17.673 14.327-32 32-32h16v32h32v-32h16c17.673 0 32 14.327 32 32h32c0-35.346-28.654-64-64-64z"/></g></g></svg>